<?xml version="1.0" encoding="UTF-8" standalone="no"?>
<!-- Created with Inkscape (http://www.inkscape.org/) -->

<svg
   xmlns:dc="http://purl.org/dc/elements/1.1/"
   xmlns:cc="http://creativecommons.org/ns#"
   xmlns:rdf="http://www.w3.org/1999/02/22-rdf-syntax-ns#"
   xmlns:svg="http://www.w3.org/2000/svg"
   xmlns="http://www.w3.org/2000/svg"
   xmlns:sodipodi="http://sodipodi.sourceforge.net/DTD/sodipodi-0.dtd"
   xmlns:inkscape="http://www.inkscape.org/namespaces/inkscape"
   id="svg2"
   version="1.1"
   inkscape:version="0.48.4 r9939"
   width="362.09491"
   height="194.87326"
   xml:space="preserve"
   sodipodi:docname="docker.svg"><metadata
     id="metadata8"><rdf:RDF><cc:Work
         rdf:about=""><dc:format>image/svg+xml</dc:format><dc:type
           rdf:resource="http://purl.org/dc/dcmitype/StillImage" /><dc:title /></cc:Work></rdf:RDF></metadata><defs
     id="defs6" /><sodipodi:namedview
     pagecolor="#ffffff"
     bordercolor="#666666"
     borderopacity="1"
     objecttolerance="10"
     gridtolerance="10"
     guidetolerance="10"
     inkscape:pageopacity="1"
     inkscape:pageshadow="2"
     inkscape:window-width="1920"
     inkscape:window-height="1199"
     id="namedview4"
     showgrid="false"
     inkscape:zoom="1.4256285"
     inkscape:cx="-81.419773"
     inkscape:cy="-24.938589"
     inkscape:window-x="1600"
     inkscape:window-y="0"
     inkscape:window-maximized="1"
     inkscape:current-layer="g10"
     fit-margin-top="0"
     fit-margin-left="0"
     fit-margin-right="0"
     fit-margin-bottom="0" /><g
     id="g10"
     inkscape:groupmode="layer"
     inkscape:label="ink_ext_XXXXXX"
     transform="matrix(1.25,0,0,-1.25,-101.70766,409.93039)"><path
       id="path3036"
       style="fill:#242d32;fill-opacity:1;fill-rule:evenodd;stroke:none"
       d="m 81.242007,169.91925 294.294033,0 0,158.57087 -294.294033,0 0,-158.57087 z"
       inkscape:connector-curvature="0" /><path
       id="path3038"
       style="fill:#eaeaea;fill-opacity:1;fill-rule:evenodd;stroke:none"
       d="m 187.55414,216.41365 0,8.29375 c 0,1.08911 0.68138,1.96513 1.80931,1.96513 l 0.31272,0 c 1.12766,0 1.80578,-0.87656 1.80578,-1.96513 l 0,-17.46053 c 0,-4.25791 -2.10384,-7.6455 -5.76914,-9.8039 -1.69964,-1.00008 -3.57762,-1.51309 -5.5479,-1.51309 l -0.77883,0 c -4.25872,0 -7.64251,2.10512 -9.80407,5.76855 -1.00314,1.70072 -1.51267,3.57599 -1.51267,5.54844 l 0,0.77829 c 0,4.25926 2.1049,7.64495 5.76748,9.80716 1.70099,1.00414 3.57626,1.51314 5.54926,1.51314 l 0.77883,0 c 2.88213,0 5.32747,-1.11708 7.38923,-2.93181 z m -15.55757,-8.77696 c 0,-3.07568 1.49088,-5.38801 4.18597,-6.8626 1.08965,-0.5964 2.27296,-0.91673 3.51626,-0.91673 3.01895,0 5.25798,1.4241 6.80261,3.98237 0.71829,1.19037 1.05273,2.49204 1.05273,3.8765 0,2.66631 -1.2623,4.74681 -3.41066,6.29225 -1.30276,0.93682 -2.7692,1.40673 -4.36839,1.40673 -3.29041,0 -5.65839,-1.66217 -7.07977,-4.61543 -0.47968,-0.99844 -0.69875,-2.05877 -0.69875,-3.16309 z m 33.11122,11.70877 0.54428,0 c 4.55082,0 8.01143,-2.20755 10.20486,-6.17987 0.8771,-1.58915 1.34619,-3.32326 1.34619,-5.14043 l 0,-0.77829 c 0,-4.25763 -2.0995,-7.65038 -5.77078,-9.80442 -1.69963,-0.99679 -3.57707,-1.51257 -5.54681,-1.51257 l -0.77774,0 c -4.25872,0 -7.64306,2.10512 -9.80418,5.76855 -1.00306,1.70072 -1.51368,3.57599 -1.51368,5.54844 l 0,0.77829 c 0,4.2598 2.1128,7.63436 5.76643,9.80607 1.69882,1.00957 3.57735,1.51423 5.55143,1.51423 z m -7.3906,-11.70877 c 0,-2.98555 1.46536,-5.18169 3.98699,-6.72578 1.18412,-0.72535 2.48796,-1.05355 3.87161,-1.05355 2.94999,0 5.13039,1.49577 6.64814,3.98563 0.72372,1.18711 1.05111,2.49095 1.05111,3.87324 0,2.77599 -1.33723,4.89693 -3.62295,6.43396 -1.25281,0.84289 -2.64732,1.26502 -4.15584,1.26502 -3.29041,0 -5.65838,-1.66217 -7.07922,-4.61543 -0.48076,-0.99844 -0.69984,-2.05877 -0.69984,-3.16309 z m 35.81418,7.4647 c -0.59287,0.27771 -1.70316,0.37001 -2.34408,0.39444 -3.28145,0.12352 -5.65567,-1.72433 -7.04855,-4.61922 -0.48077,-0.99844 -0.70038,-2.05552 -0.70038,-3.16038 0,-3.36425 1.76614,-5.71946 4.76907,-7.15523 1.09699,-0.5242 2.51321,-0.6241 3.71199,-0.6241 1.05464,0 2.54443,0.64636 3.48017,1.09074 l 0.16233,0.0768 0.72589,0 0.0801,-0.0163 c 0.89338,-0.18568 1.5677,-0.75196 1.5677,-1.71321 l 0,-0.38873 c 0,-2.39105 -4.37029,-2.93887 -6.03789,-3.05508 -5.88479,-0.40741 -10.28603,2.8246 -11.96394,8.43793 -0.29155,0.97428 -0.42267,1.94259 -0.42267,2.9584 l 0,0.7772 c 0,4.25927 2.11334,7.63274 5.76643,9.80309 1.69881,1.00876 3.57734,1.51531 5.55088,1.51531 l 0.77829,0 c 2.09325,0 4.02146,-0.5945 5.74987,-1.7751 l 0.14224,-0.0983 0.0896,-0.14794 c 0.18649,-0.30947 0.3472,-0.66699 0.3472,-1.03537 l 0,-0.38873 c 0,-1.00252 -0.75006,-1.54191 -1.65566,-1.71619 l -0.0749,-0.0133 -0.2321,0 c -0.58636,0 -1.91844,0.60699 -2.44155,0.8532 z m 12.73951,-2.65952 c 1.52536,1.52752 3.05668,3.05233 4.60484,4.55488 0.43163,0.41887 2.06529,2.19289 2.70839,2.19289 l 0.70363,0 0.0801,-0.0163 c 0.89583,-0.18623 1.56715,-0.75359 1.56715,-1.71647 l 0,-0.38846 c 0,-0.65694 -0.76932,-1.42003 -1.19362,-1.86957 -0.90234,-0.95637 -1.85247,-1.88178 -2.77599,-2.81861 l -4.74491,-4.81684 c 2.04304,-2.04765 4.08417,-4.09747 6.11065,-6.16087 0.56057,-0.57061 1.12141,-1.14204 1.6733,-1.72108 0.19518,-0.20522 0.4832,-0.46067 0.6469,-0.74544 0.17563,-0.2663 0.28367,-0.56681 0.28367,-0.88765 l 0,-0.40614 -0.0228,-0.0934 c -0.2207,-0.89583 -0.78941,-1.61893 -1.78243,-1.61893 l -0.31245,0 c -0.64989,0 -1.38365,0.7354 -1.82912,1.155 -0.91674,0.86485 -1.80279,1.77431 -2.70188,2.65765 l -3.01542,2.96004 0,-4.73109 c 0,-1.08968 -0.68218,-1.96534 -1.80903,-1.96534 l -0.30947,0 c -1.12793,0 -1.80903,0.87566 -1.80903,1.96534 l 0,26.65964 c 0,1.0902 0.68165,1.96187 1.80903,1.96187 l 0.30947,0 c 1.12685,0 1.80903,-0.87167 1.80903,-1.96187 l 0,-12.18925 z m 48.95247,6.74777 0.38983,0 c 1.17815,0 1.96431,-0.79376 1.96431,-1.96486 0,-1.62606 -1.5544,-2.04249 -2.89951,-2.04249 -1.76397,0 -3.44785,-1.06766 -4.66374,-2.26536 -1.51639,-1.49468 -2.18012,-3.40931 -2.18012,-5.5137 l 0,-9.50852 c 0,-1.0902 -0.68029,-1.96483 -1.80958,-1.96483 l -0.30974,0 c -1.12874,0 -1.80903,0.87463 -1.80903,1.96483 l 0,10.05416 c 0,3.86103 1.87961,7.01245 5.01257,9.22298 1.87147,1.32067 4.01413,2.01779 6.30501,2.01779 z m -27.91594,-18.84337 c 1.42925,-0.49895 3.05912,-0.42783 4.52556,-0.17238 0.74979,0.3187 2.66822,1.15535 3.37375,1.03292 l 0.11022,-0.0185 0.10125,-0.05 c 0.43054,-0.20876 0.84208,-0.50411 1.0617,-0.94225 0.51415,-1.02803 0.26712,-2.06063 -0.74246,-2.64406 l -0.33607,-0.19407 c -3.72584,-2.15058 -7.68839,-1.85252 -11.40201,0.1561 -1.77564,0.95959 -3.13404,2.38478 -4.13602,4.1216 l -0.23454,0.40611 c -2.39159,4.14199 -2.06882,8.49925 0.62844,12.43818 0.93139,1.36139 2.14836,2.41332 3.57137,3.23585 l 0.53831,0.31055 c 3.50867,2.02539 7.26898,1.88695 10.87266,0.10913 1.93743,-0.95582 3.50731,-2.381 4.58909,-4.25465 l 0.19437,-0.33742 c 0.78588,-1.36139 -0.2321,-2.54796 -1.28294,-3.35882 -1.21941,-0.94089 -2.45077,-2.0729 -3.61969,-3.08193 -2.60605,-2.24962 -5.2083,-4.50466 -7.81299,-6.75645 z m -3.37321,2.36906 c 2.91497,2.49936 5.83049,5.00036 8.73705,7.50977 0.99329,0.85673 2.08267,1.74578 3.06835,2.64677 -0.79104,0.99627 -2.11171,1.71456 -3.23421,2.14293 -2.26509,0.86325 -4.49924,0.57333 -6.57675,-0.626 -2.71979,-1.57014 -3.87785,-4.07086 -3.77606,-7.18265 0.0399,-1.22539 0.36974,-2.40625 1.02016,-3.44894 0.22912,-0.36756 0.48511,-0.7126 0.76146,-1.04188"
       inkscape:connector-curvature="0" /><path
       id="path3040"
       style="fill:#354750;fill-opacity:1;fill-rule:evenodd;stroke:none"
       d="m 242.73779,281.42074 11.59013,0 0,-11.84802 5.86036,0 c 2.70621,0 5.4898,0.48212 8.05269,1.35053 1.25932,0.42701 2.67283,1.02124 3.91504,1.76858 -1.63611,2.13615 -2.4714,4.83341 -2.71734,7.49212 -0.3339,3.61617 0.39552,8.32308 2.84303,11.15335 l 1.21833,1.40917 1.45179,-1.16702 c 3.65525,-2.93669 6.72931,-7.04014 7.27115,-11.71799 4.40124,1.29461 9.56854,0.98839 13.44803,-1.25064 l 1.59159,-0.91836 -0.83774,-1.63502 c -3.28091,-6.40328 -10.13997,-8.38687 -16.84594,-8.03586 -10.03465,-24.99283 -31.88121,-36.82539 -58.37008,-36.82539 -13.68502,0 -26.24075,5.11573 -33.39055,17.25721 l -0.11727,0.19817 -1.04161,2.11931 c -2.41684,5.34458 -3.21956,11.1995 -2.675,17.04954 l 0.16342,1.7523 9.91086,0 0,11.84802 11.58986,0 0,11.59041 23.18081,0 0,11.59013 13.90844,0 0,-23.18054"
       inkscape:connector-curvature="0" /><path
       id="path3042"
       style="fill:#48addf;fill-opacity:1;fill-rule:nonzero;stroke:none"
       d="m 280.28825,277.03769 c 0.7772,6.03952 -3.74267,10.78362 -6.5458,13.03595 -3.23015,-3.73452 -3.73208,-13.52214 1.3356,-17.64295 -2.82811,-2.51213 -8.78782,-4.78916 -14.88977,-4.78916 l -74.27975,0 c -0.59342,-6.36989 0.52501,-12.23568 3.07894,-17.25667 l 0.84507,-1.54544 c 0.53505,-0.90804 1.11951,-1.78433 1.75121,-2.62804 2.7e-4,0 2.7e-4,0 2.7e-4,0 3.05369,-0.19599 5.86931,-0.26386 8.44523,-0.20658 2.7e-4,0 8.1e-4,0 0.001,0 5.06226,0.11184 9.19257,0.70933 12.32309,1.79383 0.4661,0.16206 0.97401,-0.0852 1.13526,-0.55053 0.16098,-0.46556 -0.0855,-0.97401 -0.55107,-1.13526 -0.41615,-0.14414 -0.85022,-0.27933 -1.29841,-0.40719 -5.4e-4,-5.5e-4 -0.001,-5.5e-4 -0.002,-5.5e-4 -2.46489,-0.70363 -5.10786,-1.1776 -8.51825,-1.38799 0.20224,-0.003 -0.21093,-0.0304 -0.21202,-0.0304 -0.11591,-0.007 -0.26196,-0.0239 -0.37842,-0.0301 -1.34211,-0.0752 -2.79091,-0.0912 -4.27202,-0.0912 -1.61982,0 -3.21521,0.0307 -4.99873,0.12135 l -0.0456,-0.0301 c 6.1891,-6.95625 15.86623,-11.12837 27.9963,-11.12837 25.6723,0 47.44775,11.38029 57.09013,36.92935 6.84115,-0.702 13.41573,1.04242 16.40644,6.88052 -4.76391,2.74911 -10.88976,1.87255 -14.41715,0.0996"
       inkscape:connector-curvature="0" /><path
       id="path3044"
       style="fill:#56beee;fill-opacity:1;fill-rule:nonzero;stroke:none"
       d="m 280.28825,277.03769 c 0.7772,6.03952 -3.74267,10.78362 -6.5458,13.03595 -3.23015,-3.73452 -3.73208,-13.52214 1.3356,-17.64295 -2.82811,-2.51213 -8.78782,-4.78916 -14.88977,-4.78916 l -69.88122,0 c -0.30323,-9.75532 3.31701,-17.1603 9.72219,-21.63673 2.7e-4,0 8.1e-4,0 0.001,0 5.06226,0.11184 9.19257,0.70933 12.32309,1.79383 0.4661,0.16206 0.97401,-0.0852 1.13526,-0.55053 0.16098,-0.46556 -0.0855,-0.97401 -0.55107,-1.13526 -0.41615,-0.14414 -0.85022,-0.27933 -1.29841,-0.40719 -5.4e-4,-5.5e-4 -0.001,-5.5e-4 -0.002,-5.5e-4 -2.46489,-0.70363 -5.33507,-1.23814 -8.74547,-1.44853 -8.1e-4,0 -0.0825,0.079 -0.0836,0.0785 8.73678,-4.48132 21.40544,-4.46531 35.92983,1.11408 16.28618,6.25615 31.44063,18.17611 42.01494,31.80955 -0.15962,-0.0719 -0.31489,-0.14577 -0.46501,-0.22097"
       inkscape:connector-curvature="0" /><path
       id="path3046"
       style="fill:#388bbd;fill-opacity:1;fill-rule:nonzero;stroke:none"
       d="m 186.04752,259.9021 c 0.46176,-3.41202 1.45966,-6.60688 2.93995,-9.51724 l 0.84507,-1.54544 c 0.53505,-0.90804 1.11951,-1.78433 1.75148,-2.62804 3.05424,-0.19599 5.87013,-0.26386 8.44631,-0.20658 5.06226,0.11184 9.19257,0.70933 12.32309,1.79383 0.4661,0.16206 0.97401,-0.0852 1.13526,-0.55053 0.16098,-0.46556 -0.0855,-0.97401 -0.55107,-1.13526 -0.41615,-0.14414 -0.85022,-0.27933 -1.29841,-0.40719 -5.4e-4,-5.5e-4 -0.001,-5.5e-4 -0.002,-5.5e-4 -2.46489,-0.70363 -5.31987,-1.20774 -8.73027,-1.41839 -0.117,-0.007 -0.32114,-0.008 -0.43922,-0.0152 -1.34158,-0.0755 -2.77545,-0.12108 -4.25682,-0.12108 -1.61955,0 -3.27575,0.0309 -5.059,0.12108 6.18883,-6.95626 15.9265,-11.14331 28.05657,-11.14331 21.97796,0 41.0993,8.34207 52.19727,26.7739 l -87.35858,0"
       inkscape:connector-curvature="0" /><path
       id="path3048"
       style="fill:#409ccb;fill-opacity:1;fill-rule:nonzero;stroke:none"
       d="m 190.97567,259.9021 c 1.31388,-5.99093 4.47127,-10.6943 9.05466,-13.8973 5.06226,0.11184 9.19257,0.70933 12.32309,1.79383 0.4661,0.16206 0.97401,-0.0852 1.13526,-0.55053 0.16098,-0.46556 -0.0855,-0.97401 -0.55107,-1.13526 -0.41615,-0.14414 -0.85022,-0.27933 -1.29841,-0.40719 -5.4e-4,-5.5e-4 -0.001,-5.5e-4 -0.002,-5.5e-4 -2.46489,-0.70363 -5.38041,-1.20774 -8.7908,-1.41839 8.73624,-4.48105 21.36825,-4.41644 35.89155,1.1624 8.78618,3.37538 17.24227,8.40071 24.82886,14.45299 l -72.59151,0"
       inkscape:connector-curvature="0" /><path
       id="path3050"
       style="fill:#46b0d7;fill-opacity:1;fill-rule:evenodd;stroke:none"
       d="m 195.99041,279.48928 10.0447,0 0,-10.04524 -10.0447,0 0,10.04524 z m 0.83666,-0.83719 0.79267,0 0,-8.3714 -0.79267,0 0,8.3714 z m 1.49033,0 0.82443,0 0,-8.3714 -0.82443,0 0,8.3714 z m 1.52155,0 0.82444,0 0,-8.3714 -0.82444,0 0,8.3714 z m 1.52237,0 0.82443,0 0,-8.3714 -0.82443,0 0,8.3714 z m 1.5221,0 0.82443,0 0,-8.3714 -0.82443,0 0,8.3714 z m 1.52182,0 0.79322,0 0,-8.3714 -0.79322,0 0,8.3714"
       inkscape:connector-curvature="0" /><path
       id="path3052"
       style="fill:#46b0d7;fill-opacity:1;fill-rule:evenodd;stroke:none"
       d="m 207.58001,291.07941 10.04577,0 0,-10.04469 -10.04577,0 0,10.04469 z m 0.83773,-0.83719 0.79213,0 0,-8.37058 -0.79213,0 0,8.37058 z m 1.49034,0 0.82389,0 0,-8.37058 -0.82389,0 0,8.37058 z m 1.52128,0 0.82443,0 0,-8.37058 -0.82443,0 0,8.37058 z m 1.52209,0 0.82444,0 0,-8.37058 -0.82444,0 0,8.37058 z m 1.52237,0 0.82444,0 0,-8.37058 -0.82444,0 0,8.37058 z m 1.52155,0 0.79376,0 0,-8.37058 -0.79376,0 0,8.37058"
       inkscape:connector-curvature="0" /><path
       id="path3054"
       style="fill:#58c8f1;fill-opacity:1;fill-rule:evenodd;stroke:none"
       d="m 207.58001,279.48928 10.04577,0 0,-10.04524 -10.04577,0 0,10.04524 z m 0.83773,-0.83719 0.79213,0 0,-8.3714 -0.79213,0 0,8.3714 z m 1.49034,0 0.82389,0 0,-8.3714 -0.82389,0 0,8.3714 z m 1.52128,0 0.82443,0 0,-8.3714 -0.82443,0 0,8.3714 z m 1.52209,0 0.82444,0 0,-8.3714 -0.82444,0 0,8.3714 z m 1.52237,0 0.82444,0 0,-8.3714 -0.82444,0 0,8.3714 z m 1.52155,0 0.79376,0 0,-8.3714 -0.79376,0 0,8.3714"
       inkscape:connector-curvature="0" /><path
       id="path3056"
       style="fill:#46b0d7;fill-opacity:1;fill-rule:evenodd;stroke:none"
       d="m 219.17068,279.48928 10.04524,0 0,-10.04524 -10.04524,0 0,10.04524 z m 0.8372,-0.83719 0.79213,0 0,-8.3714 -0.79213,0 0,8.3714 z m 1.49006,0 0.82443,0 0,-8.3714 -0.82443,0 0,8.3714 z m 1.5221,0 0.82443,0 0,-8.3714 -0.82443,0 0,8.3714 z m 1.52209,0 0.82444,0 0,-8.3714 -0.82444,0 0,8.3714 z m 1.52183,0 0.82497,0 0,-8.3714 -0.82497,0 0,8.3714 z m 1.52209,0 0.79268,0 0,-8.3714 -0.79268,0 0,8.3714"
       inkscape:connector-curvature="0" /><path
       id="path3058"
       style="fill:#58c8f1;fill-opacity:1;fill-rule:evenodd;stroke:none"
       d="m 219.17068,291.07941 10.04524,0 0,-10.04469 -10.04524,0 0,10.04469 z m 0.8372,-0.83719 0.79213,0 0,-8.37058 -0.79213,0 0,8.37058 z m 1.49006,0 0.82443,0 0,-8.37058 -0.82443,0 0,8.37058 z m 1.5221,0 0.82443,0 0,-8.37058 -0.82443,0 0,8.37058 z m 1.52209,0 0.82444,0 0,-8.37058 -0.82444,0 0,8.37058 z m 1.52183,0 0.82497,0 0,-8.37058 -0.82497,0 0,8.37058 z m 1.52209,0 0.79268,0 0,-8.37058 -0.79268,0 0,8.37058"
       inkscape:connector-curvature="0" /><path
       id="path3060"
       style="fill:#58c8f1;fill-opacity:1;fill-rule:evenodd;stroke:none"
       d="m 230.76109,279.48928 10.04496,0 0,-10.04524 -10.04496,0 0,10.04524 z m 0.83719,-0.83719 0.7924,0 0,-8.3714 -0.7924,0 0,8.3714 z m 1.49034,0 0.82443,0 0,-8.3714 -0.82443,0 0,8.3714 z m 1.52155,0 0.82443,0 0,-8.3714 -0.82443,0 0,8.3714 z m 1.52237,0 0.82443,0 0,-8.3714 -0.82443,0 0,8.3714 z m 1.52209,0 0.82444,0 0,-8.3714 -0.82444,0 0,8.3714 z m 1.52183,0 0.79294,0 0,-8.3714 -0.79294,0 0,8.3714"
       inkscape:connector-curvature="0" /><path
       id="path3062"
       style="fill:#46b0d7;fill-opacity:1;fill-rule:evenodd;stroke:none"
       d="m 230.76109,291.07941 10.04496,0 0,-10.04469 -10.04496,0 0,10.04469 z m 0.83719,-0.83719 0.7924,0 0,-8.37058 -0.7924,0 0,8.37058 z m 1.49034,0 0.82443,0 0,-8.37058 -0.82443,0 0,8.37058 z m 1.52155,0 0.82443,0 0,-8.37058 -0.82443,0 0,8.37058 z m 1.52237,0 0.82443,0 0,-8.37058 -0.82443,0 0,8.37058 z m 1.52209,0 0.82444,0 0,-8.37058 -0.82444,0 0,8.37058 z m 1.52183,0 0.79294,0 0,-8.37058 -0.79294,0 0,8.37058"
       inkscape:connector-curvature="0" /><path
       id="path3064"
       style="fill:#58c8f1;fill-opacity:1;fill-rule:evenodd;stroke:none"
       d="m 230.76109,302.66982 10.04496,0 0,-10.04524 -10.04496,0 0,10.04524 z m 0.83719,-0.83665 0.7924,0 0,-8.37139 -0.7924,0 0,8.37139 z m 1.49034,0 0.82443,0 0,-8.37139 -0.82443,0 0,8.37139 z m 1.52155,0 0.82443,0 0,-8.37139 -0.82443,0 0,8.37139 z m 1.52237,0 0.82443,0 0,-8.37139 -0.82443,0 0,8.37139 z m 1.52209,0 0.82444,0 0,-8.37139 -0.82444,0 0,8.37139 z m 1.52183,0 0.79294,0 0,-8.37139 -0.79294,0 0,8.37139"
       inkscape:connector-curvature="0" /><path
       id="path3066"
       style="fill:#46b0d7;fill-opacity:1;fill-rule:evenodd;stroke:none"
       d="m 242.35122,279.48928 10.04524,0 0,-10.04524 -10.04524,0 0,10.04524 z m 0.83665,-0.83719 0.79322,0 0,-8.3714 -0.79322,0 0,8.3714 z m 1.49034,0 0.82443,0 0,-8.3714 -0.82443,0 0,8.3714 z m 1.52237,0 0.82443,0 0,-8.3714 -0.82443,0 0,8.3714 z m 1.52155,0 0.82443,0 0,-8.3714 -0.82443,0 0,8.3714 z m 1.52264,0 0.82416,0 0,-8.3714 -0.82416,0 0,8.3714 z m 1.52182,0 0.79267,0 0,-8.3714 -0.79267,0 0,8.3714"
       inkscape:connector-curvature="0" /><path
       id="path3068"
       style="fill:#d7f2f2;fill-opacity:1;fill-rule:evenodd;stroke:none"
       d="m 216.9968,253.15786 c 1.53024,0 2.77083,-1.24113 2.77083,-2.77137 0,-1.53024 -1.24059,-2.77083 -2.77083,-2.77083 -1.53051,0 -2.77137,1.24059 -2.77137,2.77083 0,1.53024 1.24086,2.77137 2.77137,2.77137"
       inkscape:connector-curvature="0" /><path
       id="path3070"
       style="fill:#354750;fill-opacity:1;fill-rule:evenodd;stroke:none"
       d="m 216.9968,252.3717 c 0.25355,0 0.49542,-0.0478 0.71857,-0.13437 -0.24188,-0.1398 -0.40557,-0.40177 -0.40557,-0.70146 0,-0.44737 0.36268,-0.80951 0.81005,-0.80951 0.30648,0 0.57279,0.17021 0.71042,0.42159 0.0972,-0.23428 0.1512,-0.49162 0.1512,-0.76146 0,-1.0959 -0.8885,-1.9844 -1.98467,-1.9844 -1.09589,0 -1.98494,0.8885 -1.98494,1.9844 0,1.09644 0.88905,1.98521 1.98494,1.98521"
       inkscape:connector-curvature="0" /><path
       id="path3072"
       style="fill:#354750;fill-opacity:1;fill-rule:evenodd;stroke:none"
       d="m 167.98027,258.9004 128.91177,0 c -2.80693,0.71205 -8.88093,1.67385 -7.87923,5.35245 -5.10378,-5.90596 -17.41248,-4.14335 -20.51884,-1.23109 -3.45926,-5.01719 -23.59723,-3.11016 -25.00179,0.79837 -4.33663,-5.08939 -17.77461,-5.08939 -22.11151,0 -1.4051,-3.90853 -21.5428,-5.81556 -25.00233,-0.79837 -3.10636,-2.91226 -15.41397,-4.67487 -20.5183,1.23109 1.0017,-3.6786 -5.07235,-4.6404 -7.87977,-5.35245"
       inkscape:connector-curvature="0" /><path
       id="path3074"
       style="fill:#c2e1e1;fill-opacity:1;fill-rule:nonzero;stroke:none"
       d="m 224.36351,233.18819 c -6.86287,3.25648 -10.62997,7.68351 -12.72594,12.51691 -2.54904,-0.72806 -5.61359,-1.19308 -9.17411,-1.39288 -1.3413,-0.0752 -2.75209,-0.11347 -4.23293,-0.11347 -1.70696,0 -3.50568,0.0505 -5.39398,0.15067 6.29361,-6.28981 14.03629,-11.13272 28.37228,-11.22122 1.05844,0 2.10927,0.0206 3.15468,0.06"
       inkscape:connector-curvature="0" /><path
       id="path3076"
       style="fill:#d7f2f2;fill-opacity:1;fill-rule:nonzero;stroke:none"
       d="m 214.18688,241.2455 c -0.94957,1.28891 -1.87065,2.90873 -2.54768,4.46015 -2.54959,-0.72807 -5.61468,-1.19363 -9.17574,-1.39343 2.44589,-1.32745 5.94424,-2.55772 11.72342,-3.06672"
       inkscape:connector-curvature="0" /></g></svg>