<?xml version="1.0" encoding="UTF-8" standalone="no"?>
<!-- Created with Inkscape (http://www.inkscape.org/) -->

<svg
   xmlns:dc="http://purl.org/dc/elements/1.1/"
   xmlns:cc="http://creativecommons.org/ns#"
   xmlns:rdf="http://www.w3.org/1999/02/22-rdf-syntax-ns#"
   xmlns:svg="http://www.w3.org/2000/svg"
   xmlns="http://www.w3.org/2000/svg"
   xmlns:sodipodi="http://sodipodi.sourceforge.net/DTD/sodipodi-0.dtd"
   xmlns:inkscape="http://www.inkscape.org/namespaces/inkscape"
   id="svg2"
   version="1.1"
   inkscape:version="0.48.4 r9939"
   width="362.09491"
   height="194.87326"
   xml:space="preserve"
   sodipodi:docname="travis-ci.svg"><metadata
     id="metadata8"><rdf:RDF><cc:Work
         rdf:about=""><dc:format>image/svg+xml</dc:format><dc:type
           rdf:resource="http://purl.org/dc/dcmitype/StillImage" /><dc:title /></cc:Work></rdf:RDF></metadata><defs
     id="defs6" /><sodipodi:namedview
     pagecolor="#222222"
     bordercolor="#666666"
     borderopacity="1"
     objecttolerance="10"
     gridtolerance="10"
     guidetolerance="10"
     inkscape:pageopacity="1"
     inkscape:pageshadow="2"
     inkscape:window-width="1600"
     inkscape:window-height="899"
     id="namedview4"
     showgrid="false"
     inkscape:zoom="1.4256285"
     inkscape:cx="10.118801"
     inkscape:cy="30.679902"
     inkscape:window-x="0"
     inkscape:window-y="0"
     inkscape:window-maximized="1"
     inkscape:current-layer="g10"
     fit-margin-top="0"
     fit-margin-left="0"
     fit-margin-right="0"
     fit-margin-bottom="0" /><g
     id="g10"
     inkscape:groupmode="layer"
     inkscape:label="ink_ext_XXXXXX"
     transform="matrix(1.25,0,0,-1.25,-101.70766,409.93039)"><g
       id="g3126"
       transform="matrix(0.97814417,0,0,0.97814417,357.83386,8.8506631)"><path
         d="m -118.2049,236.0374 c 0.12457,-3.45942 1.97496,-3.43347 4.1757,-3.35301 2.96374,0.0545 4.59094,0.96282 6.078,0.24654 -0.0233,0.0831 -0.48791,1.47149 -2.54072,1.23013 0.23876,0.51386 0.33997,1.20937 0.26731,2.16441 -0.26991,3.45683 -2.2812,6.20257 -4.48713,6.12471 -2.20075,-0.0753 -3.61513,-2.94557 -3.49316,-6.41278 l 0,0 z m 3.28554,4.21723 c 0.62026,0.013 1.13671,-0.48271 1.14449,-1.10556 0.013,-0.62026 -0.48531,-1.13671 -1.10296,-1.14709 -0.62286,-0.0104 -1.13671,0.48791 -1.14709,1.11075 -0.013,0.62026 0.48531,1.13152 1.10556,1.1419 l 0,0 z"
         id="path6"
         inkscape:connector-curvature="0"
         style="fill:#ffffff" /><path
         d="m -148.4184,232.06154 c 0.22838,-0.005 0.46714,0 0.71109,0.005 0.21281,0 0.42562,0.005 0.6488,0.013 2.20853,0.0207 4.03816,-0.18685 4.00961,3.27516 -0.0363,3.46202 -1.57269,6.26486 -3.78122,6.2415 -2.20334,-0.0208 -4.33661,-2.85993 -4.20944,-6.31935 0.0389,-0.90314 0.17128,-1.55194 0.38409,-2.02167 -1.92046,-0.48531 -2.45248,-1.67132 -2.48362,-1.74659 1.20937,0.6514 2.57705,0.55798 4.72069,0.55279 l 0,0 z m 1.89711,7.35743 c 0.62285,0.0207 1.1393,-0.47233 1.16006,-1.09518 0.0156,-0.62026 -0.47752,-1.1393 -1.09778,-1.15487 -0.62285,-0.0208 -1.14189,0.47492 -1.15746,1.09518 -0.0182,0.62025 0.47232,1.14189 1.09518,1.15487 l 0,0 z"
         id="path8"
         inkscape:connector-curvature="0"
         style="fill:#ffffff" /><path
         d="m -141.33865,276.30995 6.19219,0 0,2.55369 1.39362,0 0,-11.79785 -2.10472,0 0,-6.59963 10.84022,0 0,6.59963 -2.10732,0 0,11.79785 1.39623,0 0,-2.55369 6.19738,0 0,8.74328 -21.8076,0 0,-8.74328 z"
         id="path10"
         inkscape:connector-curvature="0"
         style="fill:#ffffff" /><path
         d="m -83.257729,259.45143 c -0.03893,0.75002 -0.111598,1.49744 -0.212809,2.23448 -0.0519,0.37371 -0.106408,0.74742 -0.184263,1.11335 -0.07267,0.37891 -0.14533,0.72926 -0.267308,1.1419 l -0.07785,0.29066 -0.205024,0.1635 c -1.18082,0.9239 -2.449881,1.6246 -3.739704,2.24226 -1.066632,0.50348 -2.148836,0.94207 -3.241425,1.34433 -3.054567,8.47078 -8.296902,15.98133 -15.197578,21.21069 -7.12905,5.40843 -15.5142,8.27095 -24.2445,8.27095 -8.73549,0 -17.11805,-2.86252 -24.24969,-8.27095 -5.43178,-4.11601 -9.83067,-9.64901 -12.94753,-15.9476 l -0.0155,0 c -0.84344,-1.70505 -1.60124,-3.45942 -2.25005,-5.26309 -1.09518,-0.40226 -2.17738,-0.84085 -3.24402,-1.34433 -1.29241,-0.61766 -2.55888,-1.31836 -3.7397,-2.24226 l -0.20762,-0.1635 -0.0778,-0.29066 c -0.11939,-0.41264 -0.19724,-0.76299 -0.26991,-1.1419 -0.0727,-0.36593 -0.13236,-0.73964 -0.18167,-1.11335 -0.0753,-0.53201 -0.12456,-1.07182 -0.16868,-1.61163 l 0.0182,0 c -0.0182,-0.20761 -0.0337,-0.41523 -0.0441,-0.62544 -0.0753,-1.49744 -0.0337,-2.99488 0.12976,-4.48453 0.15831,-1.48706 0.4334,-2.95855 0.83047,-4.41965 0.20761,-0.72666 0.44378,-1.44034 0.72406,-2.15403 0.13755,-0.35555 0.28807,-0.7085 0.45676,-1.06404 0.0831,-0.17647 0.17388,-0.35035 0.26471,-0.52943 l 0.14793,-0.26211 c 0.0571,-0.0986 0.096,-0.16869 0.18166,-0.29585 l 0.14793,-0.23357 0.23876,-0.12198 c 0.25174,-0.12976 0.46195,-0.22578 0.69033,-0.33479 l 0.66438,-0.30104 c 0.12197,-0.0493 0.24135,-0.10121 0.36852,-0.15312 -3.02862,-2.79764 -6.31936,-6.43353 -9.16631,-10.92845 l -3.59437,-5.66535 5.04769,4.43003 c 0.0882,0.0753 4.31844,3.73711 11.37742,7.89205 l 0.0986,-0.8123 0.25692,-2.04762 1.29242,-10.50284 c 0.0286,-0.19983 0.13235,-0.3789 0.29845,-0.4931 l 2.64971,-1.86076 c 0.0467,-0.14793 0.0908,-0.29586 0.13495,-0.44898 0.0623,-0.21021 0.11938,-0.41783 0.18426,-0.62803 l 0.60469,-1.82444 c 1.32615,-4.1238 3.20509,-7.84274 5.49148,-11.11012 -0.10901,-0.0337 -0.2206,-0.0649 -0.3296,-0.096 -1.37806,0.63842 -6.19218,2.87031 -7.809,3.59956 l -3.38157,1.5182 2.00091,-3.12204 c 0.14533,-0.22578 3.59697,-5.60826 6.41278,-9.23637 2.63933,-3.38676 6.24928,-6.84358 13.05913,-6.84358 0.81749,0 1.6791,0.0519 2.56147,0.14533 2.03206,0.23616 3.55804,0.41783 4.7181,0.56835 7.14723,-2.63155 15.03149,-2.78726 22.5135,0.0441 2.0502,0.77856 3.91618,1.72063 5.62642,2.77948 0.0363,0.005 0.0701,0.0156 0.10121,0.0233 2.78208,0.66957 5.94045,1.42478 7.50017,1.86077 0.24914,0.0675 0.56316,0.14274 0.88756,0.22059 2.17219,0.49569 5.802906,1.34174 7.736342,5.21379 1.949007,3.9084 5.130743,9.89296 5.161885,9.95265 l 1.489651,2.78467 -2.893666,-1.25868 c -0.158306,-0.0675 -3.82794,-1.66873 -5.735424,-2.66788 -0.06488,-0.0389 -0.147925,-0.0727 -0.223185,-0.109 1.551935,3.16357 2.325312,5.68352 2.602996,6.65153 l 1.045876,4.31585 3.013039,6.73977 c 0,0 0.846043,7.36782 0.864209,7.36263 l 0.295855,2.8184 c 0.264713,0.1116 1.873742,0.22319 2.187768,0.34776 0.448971,0.17647 0.897941,0.35036 1.346917,0.54499 l 0.66178,0.30105 c 0.233571,0.109 0.441185,0.20502 0.692922,0.33478 l 0.238761,0.12198 0.15052,0.23357 c 0.08305,0.12717 0.129764,0.19983 0.179067,0.29585 l 0.145335,0.26211 c 0.101212,0.17908 0.186858,0.35296 0.267303,0.52943 0.168697,0.35295 0.316622,0.7059 0.461952,1.06404 0.277688,0.71369 0.508664,1.42737 0.718873,2.15403 0.394477,1.46111 0.679946,2.93259 0.830472,4.41965 0.166091,1.48446 0.202423,2.9845 0.127168,4.48194 l 0,0 z m -68.757641,-18.18467 c 0.0649,0.0441 2.7717,1.81925 7.19135,3.98106 4.40667,0.33479 9.26751,0.5476 14.47611,0.5476 1.26646,0 2.50957,-0.0182 3.73711,-0.0389 -0.85642,-0.69033 -1.75956,-1.34173 -2.69903,-1.90489 l -3.12204,-1.88932 c -1.96977,-0.23875 -3.67742,-0.72925 -3.77085,-0.7552 -0.0597,-0.0156 -0.11419,-0.0415 -0.1635,-0.0701 -0.15312,-0.0883 -0.2699,-0.23358 -0.3218,-0.40486 l -3.19212,-10.51321 -17.03759,-3.78643 -5.3695,3.76047 -1.56231,12.64649 c 3.04678,0.56316 7.12645,1.20937 12.02103,1.75696 -0.52423,-0.62286 -1.03549,-1.28204 -1.51561,-1.97756 l -2.91442,-4.18348 4.24317,2.83137 0,0 z m 22.99361,-43.99927 c -2.81061,-0.18686 -5.66535,0.14273 -8.4604,0.90832 0.23357,0.0467 0.40226,0.0727 0.60988,0.096 0.22838,0.0312 5.24493,0.69033 7.50017,4.04335 l 0.21281,-0.005 0.56056,0.005 c 0.37112,0 0.70849,0.0311 1.06923,0.0467 0.85642,0.0701 1.6843,0.19464 2.50698,0.36074 0.0882,-0.0856 0.17129,-0.17129 0.26212,-0.26471 1.69467,-1.67911 3.79939,-2.64193 6.11173,-2.81062 -3.89023,-1.58049 -7.55208,-2.19296 -10.37308,-2.37981 l 0,0 z m 0.25434,6.15065 c 0.42301,0.94207 0.74223,1.67652 0.98358,2.22929 0.49828,-0.55537 1.12892,-1.2431 1.83741,-1.97755 -0.55278,-0.0831 -1.09777,-0.15312 -1.63498,-0.19723 -0.35295,-0.0156 -0.72147,-0.0545 -1.05885,-0.0545 l -0.12716,0 0,0 z m -8.35919,21.70119 1.52339,0.34257 c 0.25173,0.0545 0.44897,0.24395 0.52423,0.4879 l 3.18173,10.46651 c 0.55019,0.0727 1.0329,0.11159 1.45073,0.11159 0.40485,0 0.89535,-0.0389 1.44294,-0.11159 l 3.27516,-10.77794 c 0.0831,-0.27508 0.31921,-0.47492 0.59949,-0.50606 l 1.21456,-0.13754 0.31143,-0.0337 20.92262,-2.37981 c 0.17389,-0.0207 0.34517,0.0286 0.48791,0.12716 l 2.10212,1.46889 1.943816,1.35989 0.718874,0.50607 c -0.116783,-0.50088 -0.246541,-0.99916 -0.381496,-1.48965 -0.199828,-0.64361 -0.412638,-1.26646 -0.625447,-1.88413 -0.859018,-2.44469 -1.821837,-4.6636 -2.870307,-6.6671 -0.28547,-0.0182 -0.5943,-0.0312 -0.9187,-0.0312 -1.01733,0 -2.05022,0.083 -3.19472,0.18945 -1.98793,0.18426 -5.13593,0.545 -6.1273,0.65659 -0.86421,0.68773 -3.79939,3.01565 -6.2363,4.9387 -0.0934,0.0727 -0.17648,0.15052 -0.26212,0.218 -0.42821,0.36333 -0.91611,0.77337 -1.90489,0.77337 -0.90313,0 -2.21631,-0.327 -5.39026,-1.28463 1.65315,1.23532 1.66613,2.82619 1.66613,2.82619 0,0 -2.35126,-2.19037 -6.14547,-2.67307 -3.78382,-0.48791 -6.76053,1.84 -6.76053,1.84 0.12457,-0.40485 0.30104,-1.32096 1.16006,-2.09693 -1.00954,0.11678 -2.09953,0.19983 -3.24402,0.19983 -0.41005,0 -0.83047,-0.0104 -1.23273,-0.0311 -2.3305,-0.12457 -5.61085,-3.64368 -7.91281,-7.19653 -1.13151,-0.35814 -4.66879,-1.48187 -8.75885,-2.68345 -2.41615,3.34263 -4.05373,6.73458 -4.98022,8.91715 -0.5398,1.27166 -0.84085,2.13587 -0.90832,2.34088 l 0,0.005 c -0.0753,0.20762 -0.15572,0.42822 -0.22579,0.64881 l 0.98099,-0.68514 0,-0.005 2.42653,-1.70245 0.80971,-0.56317 c 0.12197,-0.0856 0.2699,-0.12976 0.41004,-0.12976 0.0519,0 0.10381,0.005 0.15831,0.0156 l 20.76951,4.62985 z m 12.90859,15.61282 c -0.0727,0.23357 -0.25433,0.40745 -0.48789,0.47752 -0.10641,0.0337 -2.21113,0.63323 -4.44561,0.82268 l 0.41005,0.0311 c 0.35295,0.026 6.22073,0.74224 13.2304,3.16098 7.7623,-0.59431 14.09981,-1.54675 18.433819,-2.3357 l -1.533774,-10.75976 -5.413625,-3.78642 -17.01682,1.93343 -3.17655,10.45613 z m 37.358127,14.49428 c -0.189448,-1.38585 -0.817491,-4.08487 -0.817491,-4.08487 l -0.490498,-0.0805 c -0.256922,0.0701 -2.649715,0.69034 -6.770914,1.45333 0.132354,0.0286 0.259522,0.0571 0.384091,0.0856 0.853828,0.2128 1.694675,0.47493 2.51217,0.80451 0.404853,0.17388 0.809705,0.35815 1.191201,0.57614 0.378901,0.2206 0.750016,0.46455 1.040681,0.79414 -4.12639,-1.34951 -12.654267,-0.73704 -20.234897,0.0467 -6.92662,0.71628 -13.87921,1.17823 -20.86552,1.1938 -6.98373,-0.0156 -13.92852,-0.48011 -20.86294,-1.1938 -7.58062,-0.78375 -16.10591,-1.39622 -20.2323,-0.0467 0.29067,-0.327 0.66438,-0.57354 1.04587,-0.79414 0.3789,-0.21799 0.78116,-0.39966 1.18602,-0.57614 0.81489,-0.32699 1.66094,-0.59171 2.51476,-0.80451 0.30105,-0.0701 0.60728,-0.13755 0.91352,-0.19204 -3.76047,-0.71369 -5.93786,-1.27945 -6.18181,-1.34693 0,0 -0.8668,-0.14014 -1.05625,0.52424 -0.3763,1.32875 -0.62804,2.25784 -0.81749,3.64109 -0.17907,1.37805 -0.2699,2.77168 -0.25952,4.16272 0.003,0.22838 -0.003,0.68513 -0.003,0.68513 0.013,0.46715 0.0337,0.93428 0.0779,1.40142 0.0259,0.34517 1.29501,1.45073 2.385,2.07877 1.17823,0.68514 2.41615,1.3028 3.67742,1.87634 1.2483,0.59171 5.29424,1.45073 7.73374,1.89191 2.4395,0.44638 11.16462,1.60385 11.81861,1.8478 0.6514,0.24913 4.42225,3.15578 5.08144,3.39713 -1.38585,-0.22838 -20.53335,-3.15319 -21.39496,-3.42568 6.21554,16.25383 18.41565,24.16924 34.65391,24.16924 16.23307,0 28.43577,-7.47422 34.656504,-23.73065 -8.211264,2.18258 -19.583494,3.1999 -20.969344,3.43087 0.65919,-0.24135 4.38851,-2.86511 5.08143,-2.95335 5.67834,-0.73704 14.631829,-2.72238 15.280628,-2.97931 1.287227,-0.52164 2.57705,-1.05885 3.827945,-1.64796 1.26387,-0.57354 2.499194,-1.1912 3.677424,-1.87634 1.089989,-0.63064 2.35645,-1.7336 2.387597,-2.07877 0.05968,-0.69552 0.08564,-1.38844 0.09343,-2.08396 0.0104,-1.39103 -0.08564,-2.78726 -0.264713,-4.16531 l 0,0 z"
         id="path12"
         inkscape:connector-curvature="0"
         style="fill:#ffffff" /></g></g></svg>